<svg width="48" height="48" viewBox="0 0 48 48" fill="none" xmlns="http://www.w3.org/2000/svg">
<g id="Group 1000001654">
<path id="Vector" opacity="0.4" d="M24 48C37.2548 48 48 37.2548 48 24C48 10.7452 37.2548 0 24 0C10.7452 0 0 10.7452 0 24C0 37.2548 10.7452 48 24 48Z" fill="#81CFB0"/>
<path id="Vector_2" d="M29.4236 24.2391L25.7996 22.9671V14.8311H26.6636C28.6076 14.8311 30.1916 16.5351 30.1916 18.6231C30.1916 19.6071 31.0076 20.4231 31.9916 20.4231C32.9756 20.4231 33.7916 19.6071 33.7916 18.6231C33.7916 14.5431 30.5996 11.2311 26.6636 11.2311H25.7996V9.83906C25.7996 8.85506 24.9836 8.03906 23.9996 8.03906C23.0156 8.03906 22.1996 8.85506 22.1996 9.83906V11.2311H20.6396C17.0876 11.2311 14.1836 14.2311 14.1836 17.9031C14.1836 22.1991 16.6796 23.5671 18.5756 24.2391L22.1996 25.5111V33.6231H21.3356C19.3916 33.6231 17.8076 31.9191 17.8076 29.8311C17.8076 28.8471 16.9916 28.0311 16.0076 28.0311C15.0236 28.0311 14.2076 28.8471 14.2076 29.8311C14.2076 33.9111 17.3996 37.2231 21.3356 37.2231H22.1996V38.6391C22.1996 39.6231 23.0156 40.4391 23.9996 40.4391C24.9836 40.4391 25.7996 39.6231 25.7996 38.6391V37.2471H27.3596C30.9116 37.2471 33.8156 34.2471 33.8156 30.5751C33.7916 26.2551 31.2956 24.8871 29.4236 24.2391ZM19.7756 20.8551C18.5516 20.4231 17.8076 20.0151 17.8076 17.9271C17.8076 16.2231 19.0796 14.8551 20.6636 14.8551H22.2236V21.7191L19.7756 20.8551ZM27.3596 33.6471H25.7996V26.7831L28.2236 27.6231C29.4476 28.0551 30.1916 28.4631 30.1916 30.5511C30.1916 32.2551 28.9196 33.6471 27.3596 33.6471Z" fill="#81CFB0"/>
</g>
</svg>
