<svg width="16" height="18" viewBox="0 0 16 18" fill="none" xmlns="http://www.w3.org/2000/svg">
<g id="Group 1000001657">
<path id="Vector" opacity="0.4" d="M11.9012 1.48438H4.10798C1.83802 1.48438 0 3.29338 0 5.50738V13.9764C0 16.1904 1.84721 17.9994 4.10798 17.9994H11.892C14.1619 17.9994 16 16.1904 16 13.9764V5.50738C16.0092 3.28438 14.1619 1.48438 11.9012 1.48438Z" fill="#777777"/>
<path id="Vector_2" d="M10.1642 0H5.84484C4.88907 0 4.10791 0.756 4.10791 1.692V2.538C4.10791 3.474 4.87988 4.23 5.83565 4.23H10.1642C11.12 4.23 11.8919 3.474 11.8919 2.538V1.692C11.9011 0.756 11.12 0 10.1642 0Z" fill="#777777"/>
<path id="Vector_3" d="M10.7615 9.85586H4.32842C3.95162 9.85586 3.63916 9.54986 3.63916 9.18086C3.63916 8.81186 3.95162 8.50586 4.32842 8.50586H10.7615C11.1383 8.50586 11.4507 8.81186 11.4507 9.18086C11.4507 9.54986 11.1383 9.85586 10.7615 9.85586Z" fill="#777777"/>
<path id="Vector_4" d="M8.35368 13.4555H4.32842C3.95162 13.4555 3.63916 13.1495 3.63916 12.7805C3.63916 12.4115 3.95162 12.1055 4.32842 12.1055H8.35368C8.73048 12.1055 9.04294 12.4115 9.04294 12.7805C9.04294 13.1495 8.73048 13.4555 8.35368 13.4555Z" fill="#777777"/>
</g>
</svg>
