<svg width="18" height="18" viewBox="0 0 18 18" fill="none" xmlns="http://www.w3.org/2000/svg">
<g id="Group 1000001648">
<g id="Group">
<path id="Vector" d="M18 17.3318C18 17.6968 17.7153 17.9995 17.3721 17.9995H0.627907C0.284651 17.9995 0 17.6968 0 17.3318C0 16.9579 0.284651 16.6641 0.627907 16.6641H17.3721C17.7153 16.6641 18 16.9579 18 17.3318Z" fill="#79AA00"/>
</g>
<path id="Vector_2" opacity="0.4" d="M16.535 6.63061V16.6645H1.42334L1.4652 6.6217C1.4652 6.07861 1.69962 5.56227 2.10985 5.22395L7.97032 0.380611C8.57311 -0.12687 9.42707 -0.12687 10.0299 0.380611L15.8903 5.22395C16.3006 5.56227 16.535 6.07862 16.535 6.63061Z" fill="#79AA00"/>
<g id="Group_2">
<path id="Vector_3" d="M10.2557 5.08939H7.74412C7.40086 5.08939 7.11621 4.78668 7.11621 4.42165C7.11621 4.05661 7.40086 3.75391 7.74412 3.75391H10.2557C10.599 3.75391 10.8837 4.05661 10.8837 4.42165C10.8837 4.78668 10.599 5.08939 10.2557 5.08939Z" fill="#79AA00"/>
</g>
<path id="Vector_4" d="M11.9302 7.53906H6.06978C5.3749 7.53906 4.81396 8.13558 4.81396 8.87454V17.3326H13.1861V8.87454C13.1861 8.13558 12.6251 7.53906 11.9302 7.53906ZM7.9535 13.5487C7.9535 13.9137 7.66885 14.2165 7.32559 14.2165C6.98234 14.2165 6.69769 13.9137 6.69769 13.5487V12.2132C6.69769 11.8482 6.98234 11.5455 7.32559 11.5455C7.66885 11.5455 7.9535 11.8482 7.9535 12.2132V13.5487Z" fill="#79AA00"/>
</g>
</svg>
