<svg width="105" height="44" viewBox="0 0 105 44" fill="none" xmlns="http://www.w3.org/2000/svg">
<g id="Group 1000000924">
<g id="Group">
<path id="Vector" d="M10.0964 32.5979L1.26246 41.2417C0.467699 40.1632 0 38.8351 0 37.4078V22.7188L10.0964 32.5979Z" fill="#526D00"/>
<path id="Vector_2" d="M12.2908 34.7441L21.7494 43.9992H6.73726C5.60562 43.9992 4.5394 43.7272 3.604 43.244L12.2908 34.7441Z" fill="#9FC134"/>
<path id="Vector_3" d="M9.37033 11.6465L25.4029 27.334L17.2558 35.3058L0 18.4278V11.6465H9.37033Z" fill="#9FC134"/>
<path id="Vector_4" d="M34.1254 11.6465V18.799L27.5973 25.1867L13.7593 11.6465H34.1254Z" fill="#79AA00"/>
<path id="Vector_5" d="M29.792 27.3334L34.1256 23.0898V31.5737L29.792 27.3334Z" fill="#526D00"/>
<path id="Vector_6" d="M27.5977 29.4805L34.1258 35.8681V37.4106C34.1258 41.0493 31.1103 43.9999 27.3883 43.9999H26.1357L19.4473 37.4554L27.5977 29.4805Z" fill="#79AA00"/>
<path id="Vector_7" d="M16.7849 0C11.2837 0 6.80949 4.30431 6.68848 9.6583H9.7923C9.91331 5.98764 13.004 3.03702 16.7816 3.03702C20.5592 3.03702 23.6532 5.98764 23.7709 9.6583H26.8748C26.7537 4.30431 22.2795 0 16.7783 0H16.7849Z" fill="#526D00"/>
</g>
<g id="Group_2">
<path id="Vector_8" d="M40.6636 22.7094V11.627H45.442C46.4002 11.627 47.2604 11.9758 48.0584 12.6606C48.8532 13.3455 49.262 14.2511 49.262 15.3808C49.262 16.5105 48.8728 17.3522 48.0912 18.069C47.3095 18.7859 46.433 19.1347 45.442 19.1347H43.1656V22.7126H40.6636V22.7094ZM43.1656 16.9073H45.2948C45.6349 16.9073 45.9783 16.7953 46.2858 16.5585C46.5932 16.3185 46.7567 15.9217 46.7567 15.3808C46.7567 14.84 46.5932 14.4592 46.2858 14.2191C45.9783 13.9791 45.6349 13.8543 45.2948 13.8543H43.1656V16.9073Z" fill="#1E252B"/>
<path id="Vector_9" d="M51.6465 22.7094V11.627H54.1485V20.482H58.5671V22.7094H51.6465Z" fill="#1E252B"/>
<path id="Vector_10" d="M59.9473 22.7094L64.6275 11.627H66.8548L71.5351 22.7094H68.8695L68.1075 20.85H63.3781L62.6161 22.7094H59.9505H59.9473ZM64.0911 18.8947H67.3912L65.7493 14.872L64.0911 18.8947Z" fill="#1E252B"/>
<path id="Vector_11" d="M73.6934 22.7094V11.627H75.9207L81.3466 18.5107V11.627H83.7669V22.7094H81.7195L76.1136 15.6336V22.7094H73.6934Z" fill="#1E252B"/>
<path id="Vector_12" d="M86.7861 22.7094V11.627H94.5212V13.8543H89.2882V15.9377H94.1777V18.117H89.2882V20.4852H94.6356V22.7126H86.7861V22.7094Z" fill="#1E252B"/>
<path id="Vector_13" d="M99.4759 22.7094V13.8543H96.4048V11.627H105V13.8543H101.978V22.7094H99.4759Z" fill="#1E252B"/>
<path id="Vector_14" d="M40.6636 41.7855V30.7031H45.4092C46.4657 30.7031 47.3749 31.0519 48.1239 31.7688C48.8859 32.4697 49.262 33.3273 49.262 34.361C49.262 35.7755 48.4673 37.0012 47.2473 37.51L50.011 41.7855H47.1852L44.8303 38.0957H43.1558V41.7855H40.6701H40.6636ZM43.1492 35.9355H45.1312C46.1059 35.9355 46.7567 35.3307 46.7567 34.393C46.7567 33.5513 46.1386 32.9305 45.3438 32.9305H43.1492V35.9355Z" fill="#1E252B"/>
<path id="Vector_15" d="M52.1338 41.7855V30.7031H59.8688V32.9305H54.6358V35.0138H59.5254V37.1932H54.6358V39.5614H59.9833V41.7887H52.1338V41.7855Z" fill="#1E252B"/>
<path id="Vector_16" d="M61.8477 38.4329V36.2695H67.6661V38.4329H61.8477Z" fill="#1E252B"/>
<path id="Vector_17" d="M70.2168 41.7855V30.7031H74.7172C75.6264 30.7031 76.3917 30.9719 77.0099 31.5128C77.6444 32.0376 77.9518 32.7225 77.9518 33.5321C77.9518 34.5978 77.4154 35.4395 76.5062 35.7595C77.9518 36.0123 78.7826 37.094 78.7826 38.5117C78.7826 39.4494 78.4588 40.2462 77.7916 40.8639C77.1407 41.4847 76.3296 41.7855 75.3386 41.7855H70.2201H70.2168ZM72.6698 35.1226H74.3116C75.0279 35.1226 75.5316 34.6298 75.5316 33.945C75.5316 33.2601 75.0279 32.7993 74.328 32.7993H72.6698V35.1194V35.1226ZM72.6698 39.6702H74.8316C75.6755 39.6702 76.2936 39.0813 76.2936 38.3197C76.2936 37.558 75.6755 37.0172 74.8153 37.0172H72.6698V39.6734V39.6702Z" fill="#1E252B"/>
<path id="Vector_18" d="M80.127 41.7855L84.8072 30.7031H87.0345L91.7148 41.7855H89.0492L88.2872 39.9262H83.5578L82.7925 41.7855H80.127ZM84.2708 37.9709H87.5709L85.929 33.9482L84.2708 37.9709Z" fill="#1E252B"/>
<path id="Vector_19" d="M103.002 32.3252L101.311 33.7717C100.611 33.0868 99.718 32.754 98.6126 32.754C97.6052 32.754 96.7614 33.0868 96.0615 33.7557C95.3616 34.4245 95.0214 35.2502 95.0214 36.2519C95.0214 37.2535 95.3616 38.0792 96.0451 38.748C96.745 39.4009 97.5889 39.7337 98.6126 39.7337C99.6363 39.7337 100.431 39.4489 101.082 38.876V37.3815H98.1089V35.2182H103.424V39.7017C102.367 41.0842 100.581 41.9579 98.6126 41.9579C96.9053 41.9579 95.476 41.417 94.2888 40.3354C93.1016 39.2377 92.5161 37.8872 92.5161 36.2487C92.5161 34.6101 93.1016 33.2596 94.2888 32.162C95.476 31.0643 96.9053 30.5234 98.6126 30.5234C100.32 30.5234 101.814 31.1283 102.998 32.3188L103.002 32.3252Z" fill="#1E252B"/>
</g>
</g>
</svg>
