<svg width="18" height="18" viewBox="0 0 18 18" fill="none" xmlns="http://www.w3.org/2000/svg">
<g id="Group 1000001661">
<path id="Vector (Stroke)" fill-rule="evenodd" clip-rule="evenodd" d="M2.52172 2.62553C1.97991 3.18966 1.63636 4.02697 1.63636 5.11118V10.2224C1.63636 11.3066 1.97991 12.1439 2.52172 12.7081C3.06354 13.2722 3.86775 13.6299 4.90909 13.6299C5.36096 13.6299 5.72727 14.0113 5.72727 14.4817V16.2918L9.36505 13.7724C9.4993 13.6795 9.65694 13.6299 9.81818 13.6299H13.0909C14.1323 13.6299 14.9365 13.2722 15.4783 12.7081C16.0201 12.1439 16.3636 11.3066 16.3636 10.2224V5.11118C16.3636 4.02697 16.0201 3.18966 15.4783 2.62553C14.9365 2.06141 14.1323 1.70373 13.0909 1.70373H4.90909C3.86775 1.70373 3.06354 2.06141 2.52172 2.62553ZM1.36464 1.42082C2.25464 0.494178 3.49589 0 4.90909 0H13.0909C14.5041 0 15.7454 0.494178 16.6354 1.42082C17.5254 2.34746 18 3.6398 18 5.11118V10.2224C18 11.6938 17.5254 12.9861 16.6354 13.9128C15.7454 14.8394 14.5041 15.3336 13.0909 15.3336H10.0654L6.63111 17.712C6.63087 17.7122 6.63063 17.7123 6.6304 17.7125C5.55038 18.4614 4.09091 17.6623 4.09091 16.2962V15.2759C3.01792 15.1208 2.07834 14.6559 1.36464 13.9128C0.474639 12.9861 0 11.6938 0 10.2224V5.11118C0 3.6398 0.474639 2.34746 1.36464 1.42082Z" fill="#1E252B"/>
<path id="Vector (Stroke)_2" fill-rule="evenodd" clip-rule="evenodd" d="M6.82324 6.03942C6.82324 4.78528 7.79495 3.77344 8.99958 3.77344C10.2042 3.77344 11.1759 4.78528 11.1759 6.03942C11.1759 7.04774 10.5328 7.57667 10.1502 7.84896C9.99548 7.9603 9.91596 8.03417 9.8703 8.09793C9.83969 8.14068 9.81777 8.18566 9.81777 8.27983V8.45869C9.81777 8.92916 9.45145 9.31055 8.99958 9.31055C8.54771 9.31055 8.1814 8.92916 8.1814 8.45869V8.27983C8.1814 7.24979 8.83995 6.72049 9.222 6.44584L9.22545 6.44336L9.22546 6.44337C9.37155 6.33948 9.44782 6.26766 9.4907 6.20739C9.51979 6.16652 9.53956 6.12487 9.53956 6.03942C9.53956 5.72614 9.3004 5.47716 8.99958 5.47716C8.69877 5.47716 8.45961 5.72614 8.45961 6.03942C8.45961 6.50989 8.09329 6.89129 7.64142 6.89129C7.18955 6.89129 6.82324 6.50989 6.82324 6.03942Z" fill="#1E252B"/>
<path id="Vector (Stroke)_3" fill-rule="evenodd" clip-rule="evenodd" d="M8.17773 10.4944C8.17773 10.024 8.54405 9.64258 8.99592 9.64258H9.00328C9.45515 9.64258 9.82146 10.024 9.82146 10.4944C9.82146 10.9649 9.45515 11.3463 9.00328 11.3463H8.99592C8.54405 11.3463 8.17773 10.9649 8.17773 10.4944Z" fill="#1E252B"/>
</g>
</svg>
