<svg width="14" height="16" viewBox="0 0 14 16" fill="none" xmlns="http://www.w3.org/2000/svg">
<g id="Group 1000000916">
<path id="Vector" opacity="0.4" d="M10.3192 5.48923C10.0105 5.48923 9.76506 5.24126 9.76506 4.9293V3.90542C9.76506 3.12151 9.43258 2.3696 8.86262 1.84166C8.27683 1.30572 7.5248 1.05775 6.73318 1.12974C5.40328 1.25773 4.23961 2.62557 4.23961 4.0494V4.76931C4.23961 5.08128 3.99421 5.32925 3.68548 5.32925C3.37675 5.32925 3.13135 5.08128 3.13135 4.76931V4.0494C3.13135 2.04963 4.73041 0.20185 6.62236 0.0178713C7.7227 -0.0861165 8.78346 0.265842 9.59882 1.01775C10.4063 1.75367 10.8654 2.80954 10.8654 3.90542V4.9293C10.8654 5.24126 10.62 5.48923 10.3192 5.48923Z" fill="#A8A8A8"/>
<path id="Vector_2" d="M13.3019 5.56871C12.6369 4.8248 11.5445 4.46484 9.94542 4.46484H4.05582C2.45677 4.46484 1.36434 4.8248 0.699386 5.56871C-0.0684779 6.43261 -0.0447294 7.58448 0.042348 8.38439L0.596477 12.8399C0.762715 14.3997 1.38809 15.9995 4.79202 15.9995H9.20922C12.6132 15.9995 13.2385 14.3997 13.4048 12.8479L13.9589 8.37639C14.046 7.58448 14.0618 6.43261 13.3019 5.56871ZM4.16665 8.92032H4.15873C3.72335 8.92032 3.36712 8.56036 3.36712 8.12042C3.36712 7.68047 3.72335 7.32051 4.15873 7.32051C4.60204 7.32051 4.95826 7.68047 4.95826 8.12042C4.95826 8.56036 4.60204 8.92032 4.16665 8.92032ZM9.70794 8.92032H9.70002C9.26463 8.92032 8.90841 8.56036 8.90841 8.12042C8.90841 7.68047 9.26463 7.32051 9.70002 7.32051C10.1433 7.32051 10.4995 7.68047 10.4995 8.12042C10.4995 8.56036 10.1433 8.92032 9.70794 8.92032Z" fill="#A8A8A8"/>
</g>
</svg>
