<svg width="18" height="16" viewBox="0 0 18 16" fill="none" xmlns="http://www.w3.org/2000/svg">
<g id="Group 1000001662">
<path id="Vector (Stroke)" fill-rule="evenodd" clip-rule="evenodd" d="M8.99971 5.77975C7.80829 5.77975 6.84672 6.77364 6.84672 8.00509C6.84672 9.23654 7.80829 10.2304 8.99971 10.2304C10.1911 10.2304 11.1527 9.23654 11.1527 8.00509C11.1527 6.77364 10.1911 5.77975 8.99971 5.77975ZM5.17773 8.00509C5.17773 5.82091 6.88654 4.05469 8.99971 4.05469C11.1129 4.05469 12.8217 5.82091 12.8217 8.00509C12.8217 10.1893 11.1129 11.9555 8.99971 11.9555C6.88654 11.9555 5.17773 10.1893 5.17773 8.00509Z" fill="#A3A3A3"/>
<path id="Vector (Stroke)_2" fill-rule="evenodd" clip-rule="evenodd" d="M0.694013 5.29822C2.71729 2.01097 5.70044 0 9 0C12.2997 0 15.2831 2.0112 17.3063 5.29878C17.7875 6.0786 18 7.06547 18 8C18 8.93475 17.7874 9.92187 17.306 10.7018C15.2827 13.989 12.2996 16 9 16C5.70025 16 2.71695 13.9888 0.693665 10.7012C0.212472 9.92139 0 8.93453 0 8C0 7.06524 0.212574 6.07813 0.694013 5.29822ZM9 1.72507C6.40823 1.72507 3.90058 3.30201 2.10188 6.22467L2.10119 6.2258C1.83183 6.66197 1.66898 7.30479 1.66898 8C1.66898 8.69521 1.83183 9.33803 2.10119 9.7742L2.10189 9.77533C3.90058 12.698 6.40823 14.2749 9 14.2749C11.5918 14.2749 14.0994 12.698 15.8981 9.77533L15.8988 9.7742C16.1682 9.33803 16.331 8.69521 16.331 8C16.331 7.30479 16.1682 6.66197 15.8988 6.2258L15.8981 6.22467C14.0994 3.30201 11.5918 1.72507 9 1.72507Z" fill="#A3A3A3"/>
</g>
</svg>
