<svg width="16" height="18" viewBox="0 0 16 18" fill="none" xmlns="http://www.w3.org/2000/svg">
<g id="Group 1000001429">
<path id="Vector (Stroke)" fill-rule="evenodd" clip-rule="evenodd" d="M2.27967 2.21483C1.91589 2.56827 1.68421 3.26677 1.68421 4.90893V13.9086C1.68421 14.3605 1.30719 14.7268 0.842105 14.7268C0.377023 14.7268 0 14.3605 0 13.9086V4.90893C0 3.27847 0.189377 1.93158 1.08875 1.05779C1.98813 0.183991 3.37444 0 5.05263 0H10.9474C12.6256 0 14.0119 0.183991 14.9112 1.05779C15.8106 1.93158 16 3.27847 16 4.90893V13.1005C16 13.2089 16 13.3484 15.9894 13.4924C15.9563 13.9431 15.5534 14.2824 15.0895 14.2502C14.6256 14.218 14.2764 13.8265 14.3095 13.3758C14.3154 13.2952 14.3158 13.2098 14.3158 13.0905V4.90893C14.3158 3.26677 14.0841 2.56827 13.7203 2.21483C13.3565 1.8614 12.6376 1.63631 10.9474 1.63631H5.05263C3.3624 1.63631 2.64345 1.8614 2.27967 2.21483Z" fill="#1E252B"/>
<path id="Vector (Stroke)_2" fill-rule="evenodd" clip-rule="evenodd" d="M3.24211 12.273C2.38508 12.273 1.68421 12.954 1.68421 13.7866V14.3184C1.68421 15.4456 2.62929 16.3638 3.78947 16.3638H12.2105C13.3707 16.3638 14.3158 15.4456 14.3158 14.3184V12.273H3.24211ZM0 13.7866C0 12.0503 1.45492 10.6367 3.24211 10.6367H15.1579C15.623 10.6367 16 11.003 16 11.4549V14.3184C16 16.3493 14.3009 18.0001 12.2105 18.0001H3.78947C1.69913 18.0001 0 16.3493 0 14.3184V13.7866Z" fill="#1E252B"/>
<path id="Vector (Stroke)_3" fill-rule="evenodd" clip-rule="evenodd" d="M3.79004 4.90995C3.79004 4.4581 4.16706 4.0918 4.63214 4.0918H11.369C11.8341 4.0918 12.2111 4.4581 12.2111 4.90995C12.2111 5.36181 11.8341 5.72811 11.369 5.72811H4.63214C4.16706 5.72811 3.79004 5.36181 3.79004 4.90995Z" fill="#1E252B"/>
<path id="Vector (Stroke)_4" fill-rule="evenodd" clip-rule="evenodd" d="M3.79004 7.77323C3.79004 7.32138 4.16706 6.95508 4.63214 6.95508H8.84267C9.30775 6.95508 9.68478 7.32138 9.68478 7.77323C9.68478 8.22509 9.30775 8.59139 8.84267 8.59139H4.63214C4.16706 8.59139 3.79004 8.22509 3.79004 7.77323Z" fill="#1E252B"/>
</g>
</svg>
