<svg width="18" height="18" viewBox="0 0 18 18" fill="none" xmlns="http://www.w3.org/2000/svg">
<g id="Group 1000001431">
<g id="Group 1000001432">
<path id="Vector (Stroke)" fill-rule="evenodd" clip-rule="evenodd" d="M8.58763 2.52995C7.99087 3.02586 7.59121 3.8485 7.47206 5.26554C7.4324 5.73726 7.01784 6.08752 6.54612 6.04786C6.0744 6.00819 5.72414 5.59363 5.7638 5.12191C5.90356 3.45973 6.40587 2.11407 7.49197 1.2115C8.55867 0.325054 10.0312 0 11.8043 0H11.9129C13.8687 0 15.4609 0.396464 16.5402 1.50178C17.6144 2.60201 17.9981 4.21937 17.9981 6.21158V11.7884C17.9981 13.7806 17.6144 15.398 16.5402 16.4982C15.4609 17.6035 13.8687 18 11.9129 18H11.8043C10.044 18 8.58075 17.6793 7.5164 16.8073C6.43145 15.9183 5.92188 14.5917 5.77267 12.9524C5.72976 12.481 6.07715 12.064 6.54859 12.0211C7.02003 11.9782 7.43699 12.3256 7.4799 12.797C7.60629 14.1856 8.00706 14.9931 8.60287 15.4812C9.21929 15.9863 10.2073 16.2857 11.8043 16.2857H11.9129C13.6903 16.2857 14.7121 15.9166 15.3136 15.3006C15.9201 14.6794 16.2839 13.6196 16.2839 11.7884V6.21158C16.2839 4.38042 15.9201 3.32055 15.3136 2.69941C14.7121 2.08335 13.6903 1.71429 11.9129 1.71429H11.8043C10.195 1.71429 9.20379 2.01791 8.58763 2.52995Z" fill="#EE5757"/>
<path id="Vector (Stroke)_2" fill-rule="evenodd" clip-rule="evenodd" d="M13.4062 8.99191C13.4062 8.51852 13.0225 8.13477 12.5491 8.13477H1.7922C1.31881 8.13477 0.935055 8.51852 0.935055 8.99191C0.935055 9.4653 1.31881 9.84905 1.7922 9.84905H12.5491C13.0225 9.84905 13.4062 9.4653 13.4062 8.99191Z" fill="#EE5757"/>
<path id="Vector (Stroke)_3" fill-rule="evenodd" clip-rule="evenodd" d="M4.25339 5.51144C3.91468 5.18072 3.37201 5.1872 3.04129 5.52591L0.243494 8.3913C-0.0816531 8.72431 -0.0816531 9.25593 0.243494 9.58893L3.04129 12.4543C3.37201 12.793 3.91468 12.7995 4.25339 12.4688C4.5921 12.1381 4.59857 11.5954 4.26786 11.2567L2.05475 8.99012L4.26786 6.72354C4.59857 6.38483 4.5921 5.84216 4.25339 5.51144Z" fill="#EE5757"/>
</g>
</g>
</svg>
